<svg width="64" height="64" viewBox="0 0 64 64" fill="none" xmlns="http://www.w3.org/2000/svg" role="img" aria-label="AbleJam">
  <defs>
    <linearGradient id="bgD" x1="0" y1="0" x2="1" y2="1">
      <stop offset="0" stop-color="#1c1c1f"/>
      <stop offset="1" stop-color="#0b0b0c"/>
    </linearGradient>
    <linearGradient id="clipD" x1="0" y1="0" x2="0" y2="1">
      <stop offset="0" stop-color="#ff9a3a"/>
      <stop offset="1" stop-color="#ff5a00"/>
    </linearGradient>
  </defs>
  <rect x="1" y="1" width="62" height="62" rx="15" fill="url(#bgD)" stroke="#2a2a2e"/>
  <!-- Session-View clip matrix (3x3): muted clips + one active orange clip with a play -->
  <g fill="#41414a">
    <rect x="9"  y="9"  width="12" height="12" rx="3"/>
    <rect x="26" y="9"  width="12" height="12" rx="3"/>
    <rect x="43" y="9"  width="12" height="12" rx="3"/>
    <rect x="9"  y="26" width="12" height="12" rx="3"/>
    <rect x="43" y="26" width="12" height="12" rx="3"/>
    <rect x="9"  y="43" width="12" height="12" rx="3"/>
    <rect x="26" y="43" width="12" height="12" rx="3"/>
    <rect x="43" y="43" width="12" height="12" rx="3"/>
  </g>
  <rect x="26" y="26" width="12" height="12" rx="3" fill="url(#clipD)"/>
</svg>
